<?xml version="1.0" standalone="no"?>
<!DOCTYPE svg PUBLIC "-//W3C//DTD SVG 20010904//EN"
 "http://www.w3.org/TR/2001/REC-SVG-20010904/DTD/svg10.dtd">
<svg version="1.0" xmlns="http://www.w3.org/2000/svg"
 width="441.000000pt" height="625.000000pt" viewBox="0 0 441.000000 625.000000"
 preserveAspectRatio="xMidYMid meet">

<g transform="translate(0.000000,625.000000) scale(0.100000,-0.100000)"
fill="#000000" stroke="none">
<path d="M1043 6239 c-31 -11 -45 -42 -33 -73 17 -46 90 -43 105 4 14 45 -27
86 -72 69z"/>
<path d="M1666 5958 c-21 -30 -20 -51 3 -72 27 -25 72 -17 90 15 13 24 13 29
-2 53 -22 34 -69 36 -91 4z"/>
<path d="M2129 5691 c-90 -90 42 -228 139 -146 36 31 46 66 32 111 -23 67
-119 87 -171 35z"/>
<path d="M1432 5618 c-7 -7 -12 -26 -12 -43 0 -38 16 -55 50 -55 50 0 78 60
44 94 -18 19 -65 21 -82 4z"/>
<path d="M475 5385 c-14 -13 -25 -31 -25 -40 0 -21 36 -55 60 -55 26 0 60 34
60 60 0 24 -34 60 -55 60 -9 0 -27 -11 -40 -25z"/>
<path d="M2262 5199 c-64 -12 -158 -67 -202 -116 -43 -49 -75 -111 -90 -175
-17 -75 -14 -102 25 -243 5 -18 -5 -23 -87 -48 -51 -16 -144 -53 -207 -83 -63
-30 -115 -54 -116 -54 -1 0 -5 28 -8 61 -12 137 -117 277 -257 343 -61 29 -72
31 -185 31 -115 0 -123 -2 -186 -32 -164 -81 -259 -229 -259 -407 0 -205 130
-379 323 -431 l64 -17 -55 -81 c-29 -44 -71 -116 -93 -158 l-38 -77 -48 15
c-63 19 -171 12 -245 -16 -162 -62 -260 -249 -223 -425 18 -84 48 -138 114
-200 60 -55 116 -83 192 -94 l54 -7 12 -115 c33 -307 118 -546 280 -789 240
-360 623 -616 1066 -713 89 -19 132 -22 327 -22 197 0 238 3 330 22 220 48
437 139 611 258 102 69 123 86 219 178 266 256 421 543 497 921 28 140 25 453
-5 604 -67 334 -211 611 -441 855 -214 225 -544 410 -842 472 -46 9 -87 20
-91 23 -3 3 0 38 9 76 42 204 -88 400 -295 444 -60 12 -88 13 -150 0z m571
-1759 c76 -29 130 -79 169 -158 31 -63 33 -72 33 -177 0 -100 -3 -116 -29
-172 -36 -78 -94 -133 -172 -163 -49 -18 -74 -21 -149 -18 -143 6 -229 60
-283 177 -38 80 -44 240 -13 322 36 94 117 171 211 200 52 15 177 10 233 -11z
m635 5 c79 -24 116 -89 78 -140 -13 -18 -15 -18 -63 3 -100 43 -202 35 -232
-19 -25 -46 2 -72 113 -109 164 -54 226 -115 226 -223 0 -82 -35 -137 -115
-180 -56 -30 -251 -32 -305 -3 -78 41 -99 85 -64 134 19 27 33 28 76 3 111
-65 258 -40 258 43 0 43 -39 72 -138 105 -117 39 -165 71 -192 125 -51 107 0
220 119 262 50 18 177 17 239 -1z m-1845 -33 c74 -37 109 -72 146 -152 23 -48
26 -68 26 -160 0 -94 -3 -111 -28 -165 -37 -78 -75 -117 -151 -151 -52 -24
-77 -29 -169 -32 -120 -5 -190 8 -224 40 -23 21 -23 24 -23 313 0 265 2 293
18 308 31 28 85 36 213 34 119 -3 129 -4 192 -35z m705 -25 c5 -64 -2 -67
-164 -67 l-144 0 0 -80 0 -80 135 0 135 0 6 -26 c4 -15 3 -39 -2 -53 l-9 -26
-133 -3 -132 -3 0 -89 0 -90 155 0 154 0 6 -34 c4 -19 2 -43 -4 -55 -11 -20
-19 -21 -216 -21 l-204 0 -20 26 c-20 26 -21 39 -21 306 0 275 4 310 34 330 6
5 103 7 216 5 l205 -2 3 -38z"/>
<path d="M2644 3329 c-41 -12 -100 -77 -113 -126 -14 -49 -14 -147 0 -197 15
-55 74 -113 129 -127 83 -21 161 15 202 94 18 34 22 59 22 132 0 127 -34 190
-121 221 -44 15 -75 16 -119 3z"/>
<path d="M1373 3323 l-23 -4 0 -220 0 -219 26 -6 c43 -11 136 5 180 31 104 61
124 259 37 356 -49 55 -135 78 -220 62z"/>
<path d="M695 5119 c-61 -35 -73 -108 -27 -160 31 -35 82 -43 125 -20 50 27
63 111 24 156 -25 30 -90 43 -122 24z"/>
<path d="M1663 5090 c-130 -31 -174 -191 -79 -286 106 -106 286 -29 286 121 0
108 -103 191 -207 165z"/>
<path d="M116 4768 c-21 -29 -20 -51 2 -71 26 -24 68 -21 86 5 21 30 20 44 -4
68 -27 27 -65 26 -84 -2z"/>
<path d="M58 4324 c-35 -18 -48 -43 -48 -89 0 -50 15 -74 57 -91 46 -20 86
-10 118 28 44 52 25 136 -36 157 -41 14 -58 13 -91 -5z"/>
<path d="M554 4112 c-127 -60 -135 -240 -13 -302 115 -59 249 18 249 143 0
127 -124 211 -236 159z"/>
</g>
</svg>
